<svg version="1" xmlns="http://www.w3.org/2000/svg" width="682.667" height="682.667" viewBox="0 0 512.000000 512.000000"><path d="M325.5 1.3c-1.1.8-4.9 2.9-8.3 4.8-5 2.7-7.3 4.7-10.8 9.7-2.4 3.5-4.4 6.7-4.4 7.2 0 .4-.3 1-.7 1.2-.7.2-21.4 30.5-26.3 38.3-.8 1.3-6 9.1-11.5 17.3l-10 14.9-11.5 4.4c-6.3 2.4-11.6 4.3-11.7 4.2-.2-.1-2.7.9-5.8 2.2-3 1.4-5.6 2.5-5.8 2.4-.2 0-.6.1-9.2 3.1-3.3 1.2-10.3 3.7-15.5 5.5-19 6.6-24.4 8.7-26.9 10-7.8 4.1-22.9 17-44.3 37.7-3.9 3.8-22.4 41.2-23.1 46.8-.4 2.5-.9 7.6-1.2 11.5-.3 3.8-.8 8.3-1 10-1.4 10.2-2 23.9-1.8 44.6l.2 23.7 5.6 22.3c3 12.2 7.6 28.8 10.1 36.8 4.3 13.6 6.9 22.8 8 27.6.7 3.2.7 8.8-.1 13.6-.8 5.5-1.2 8.3-1.9 13.4-.3 2.2-1.4 10.7-2.5 19-1.2 8.2-2.3 17-2.6 19.3-.5 4-1.6 5.5-12.8 16.9-6.7 6.9-16.2 16.6-21.1 21.6-4.9 5.1-11.4 11.8-14.5 14.9l-5.5 5.8h387.5l-.6-3.8c-.4-2-2.2-11.8-4.1-21.7-2-9.9-3.9-20.3-4.4-23-1.1-5.7-1.4-7.4-4-20.5-1.9-9.4-4.7-24.1-5.6-29-.2-1.4-.9-4.8-1.4-7.5-1.3-6.4-1.4-6.9-4.6-23.8-2.1-11.3-6-24.3-18.9-63.2-10.5-31.5-17.8-51.7-20.3-56.5-2.8-5.2-4.7-10.6-6.1-17.5-1.2-5.5-3.2-15.2-4.6-21.5-1.4-6.3-2.7-12.4-2.9-13.5-.8-4.2-3.6-17.5-6.1-28.9-2.4-11.1-2.5-12-1-14.3.9-1.4 11.5-14.8 23.6-29.9 12-15.1 22.4-28.4 23-29.5.9-1.8.8-2-.8-1.5-2.2.6-14.2 3.7-16.3 4.1-.8.2-13.3 5.5-27.8 11.9-14.4 6.4-27.2 11.8-28.5 12.1-3.4.9-6.5-3.8-10.9-16-3.3-9.2-11-37-12.4-44.5-.3-1.4-.6-3-.8-3.6-.3-.6 1.6-8 4-16.5 2.5-8.5 4.7-16.1 4.9-17 .2-.9 1.2-4.7 2.3-8.5 1.2-3.8 2.3-8.3 2.6-9.9.3-1.7 1.2-5.9 2.1-9.4 2-8.1 1.8-9.7-1-7.8z"/></svg>